<?xml version="1.0" standalone="no"?>
<!DOCTYPE svg PUBLIC "-//W3C//DTD SVG 20010904//EN"
 "http://www.w3.org/TR/2001/REC-SVG-20010904/DTD/svg10.dtd">
<svg version="1.0" xmlns="http://www.w3.org/2000/svg"
 width="1024.000000pt" height="1024.000000pt" viewBox="0 0 1024.000000 1024.000000"
 preserveAspectRatio="xMidYMid meet">

<g transform="translate(0.000000,1024.000000) scale(0.100000,-0.100000)"
fill="#000000" stroke="none">
<path d="M5884 8053 c-118 -3 -121 -4 -133 -29 -6 -14 -11 -34 -11 -44 0 -23
-21 -25 -85 -10 -60 14 -2680 14 -2797 -1 -167 -20 -363 -98 -500 -199 -126
-92 -274 -290 -326 -434 -54 -148 -75 -270 -77 -456 -1 -91 -3 -170 -4 -176 0
-6 -19 -18 -41 -27 -26 -10 -43 -25 -50 -42 -11 -29 -13 -105 -4 -130 8 -20
55 -45 85 -45 21 0 22 -2 15 -77 -3 -42 -6 -96 -6 -120 0 -38 -3 -43 -23 -43
-12 0 -33 -7 -45 -16 -22 -15 -22 -19 -22 -248 0 -258 -1 -252 64 -263 l36 -6
0 -63 c0 -61 -1 -64 -24 -64 -37 0 -57 -10 -65 -34 -9 -23 5 -676 14 -707 4
-11 20 -21 41 -25 39 -7 39 -7 28 -137 -7 -72 -8 -77 -30 -77 -13 0 -33 -9
-44 -20 -19 -19 -20 -33 -20 -269 0 -286 4 -305 61 -322 l38 -12 -2 -421 c-2
-371 0 -431 16 -509 64 -317 244 -574 510 -731 93 -55 124 -69 242 -109 l90
-30 530 -6 c292 -4 1349 -6 2350 -5 1800 2 1821 2 1906 22 163 39 311 110 440
208 62 48 167 162 218 237 56 83 121 233 154 355 l32 117 2 940 c1 517 5 968
9 1003 5 56 9 64 31 73 22 8 25 14 20 47 -20 136 -29 352 -23 592 4 146 9 286
13 313 5 45 5 48 -24 57 l-29 11 0 457 c1 571 -6 621 -131 864 -44 85 -74 126
-145 202 -114 122 -187 176 -323 242 -146 71 -249 97 -390 98 -60 1 -127 -3
-147 -7 -34 -8 -37 -7 -52 22 l-17 31 -197 0 c-108 1 -231 5 -272 10 -83 10
-694 20 -886 13z m1731 -226 c135 -37 248 -95 361 -188 86 -70 145 -135 172
-189 10 -22 21 -37 24 -35 3 3 10 -6 16 -21 7 -14 9 -23 5 -21 -5 3 -8 -11 -9
-31 l-1 -37 12 29 c12 29 12 28 44 -55 70 -182 68 -163 74 -1096 l3 -503 -38
0 c-38 0 -38 0 -38 -40 0 -41 4 -43 55 -43 6 0 9 -33 9 -81 -2 -63 0 -72 6
-41 5 29 6 21 3 -30 -2 -38 -5 -590 -6 -1225 l-2 -1155 -23 -68 -23 -68 -18
23 c-16 19 -21 20 -35 9 -11 -10 -16 -10 -16 -2 0 7 -5 9 -12 5 -8 -5 -9 -2
-4 12 11 28 26 109 36 199 6 47 10 828 11 1915 0 1983 1 1949 -52 2111 -25 77
-91 210 -113 228 -9 7 -14 17 -11 21 3 4 -2 11 -11 14 -8 3 -12 11 -8 17 4 7
3 10 -2 6 -5 -3 -30 15 -54 40 -63 63 -222 162 -288 179 -89 22 -115 32 -97
36 11 3 -356 6 -815 7 -459 2 -913 4 -1007 6 -95 2 -171 -1 -168 -6 3 -4 -592
-8 -1322 -8 -1530 1 -1472 4 -1661 -90 -103 -51 -204 -128 -251 -193 -17 -23
-31 -38 -31 -33 0 11 51 78 67 88 16 10 17 27 2 27 -5 0 -8 -4 -5 -9 7 -11
-22 -23 -36 -14 -7 3 -8 1 -4 -6 4 -6 0 -18 -8 -27 -9 -8 -16 -12 -16 -9 0 4
-9 -3 -19 -16 -11 -13 -17 -26 -15 -28 2 -3 11 4 19 15 14 18 14 18 9 -3 -4
-12 -13 -24 -21 -27 -12 -5 -13 -9 -3 -21 11 -14 9 -19 -6 -12 -3 1 -10 -6
-16 -17 -8 -15 -12 -16 -19 -5 -7 12 -9 11 -9 -1 0 -8 -7 -28 -16 -45 -20 -38
-25 -88 -8 -81 10 4 10 -2 1 -27 l-11 -32 -8 25 c-6 19 -6 16 -3 -11 3 -20 -2
-65 -12 -100 -15 -55 -17 -122 -19 -479 -3 -480 -3 -1299 -1 -2580 l2 -905 28
-98 c15 -55 31 -106 36 -115 4 -10 6 -23 3 -31 -3 -8 0 -11 6 -7 13 8 26 -29
16 -45 -4 -7 -3 -9 3 -6 5 4 16 -6 24 -21 7 -15 19 -34 26 -43 12 -14 11 -16
-12 -12 -23 5 -32 24 -26 56 1 5 -3 5 -9 2 -6 -4 -9 -12 -7 -19 2 -6 8 -22 12
-36 7 -22 6 -23 -9 -11 -9 7 -16 25 -16 40 0 22 -5 27 -24 27 l-23 0 27 -45
c21 -37 32 -46 57 -47 16 0 36 -5 43 -9 10 -6 12 -3 7 11 -4 10 24 -15 62 -56
63 -69 75 -90 51 -90 -5 0 -7 6 -4 13 5 13 -54 64 -70 59 -5 -2 -16 4 -25 12
-15 14 -18 13 -28 -4 -10 -14 -9 -21 3 -31 8 -6 18 -9 21 -5 4 4 1 11 -7 16
-8 5 -12 11 -10 14 3 2 14 -2 25 -10 15 -11 17 -17 8 -22 -10 -6 -9 -13 3 -30
13 -20 17 -20 30 -7 13 13 13 18 -2 42 l-17 28 25 -25 c25 -25 25 -25 7 -46
-11 -11 -16 -24 -12 -27 3 -4 3 -7 -1 -7 -9 0 -118 110 -109 110 5 0 1 5 -8
10 -9 5 -37 45 -63 89 -35 59 -46 87 -41 103 5 18 4 20 -4 8 -6 -8 -11 -12
-11 -9 0 3 -13 45 -30 92 -16 47 -34 126 -40 174 -14 123 -15 3834 -1 3928 38
262 158 471 356 620 88 66 173 106 304 142 l96 26 1684 4 c926 1 1686 5 1689
8 3 3 305 4 671 2 578 -3 674 -6 726 -20z m-3749 -303 c19 -106 53 -160 124
-198 l55 -28 1164 6 c1149 7 1164 7 1212 27 49 22 103 78 127 133 7 15 15 55
19 87 5 53 9 60 31 66 14 3 224 3 466 -1 493 -8 544 -13 661 -74 48 -25 96
-61 152 -118 67 -67 89 -98 127 -175 88 -182 80 11 84 -2069 1 -1109 -1 -1897
-7 -1975 -15 -205 -77 -352 -202 -477 -89 -89 -168 -139 -276 -174 l-88 -29
-2320 0 c-2248 0 -2322 1 -2375 19 -266 91 -434 285 -495 571 -13 60 -15 332
-15 1976 0 1878 0 1907 20 1985 52 204 200 401 350 466 150 66 108 62 655 68
275 3 504 2 509 -2 5 -4 15 -42 22 -84z m1908 40 c10 -4 16 -18 16 -40 0 -28
-5 -36 -25 -44 -47 -18 -68 4 -53 58 9 32 26 40 62 26z m-554 -14 c21 -7 18
-8 -18 -9 -26 -1 -41 -5 -37 -11 3 -5 1 -10 -4 -10 -13 0 -10 -22 4 -32 6 -4
-38 -8 -98 -8 -104 0 -108 1 -119 24 -22 51 -10 56 124 55 68 -1 134 -5 148
-9z m275 -10 c3 -11 3 -29 0 -40 -5 -16 -15 -20 -56 -20 -31 0 -48 4 -44 10 3
6 0 10 -7 10 -8 0 -6 5 5 11 33 19 17 29 -50 31 l-68 1 60 7 c123 14 153 12
160 -10z m2659 -4667 c-7 -53 -14 -69 -14 -32 0 18 -2 21 -9 9 -6 -8 -8 -18
-5 -22 6 -9 -27 -61 -34 -54 -3 3 0 11 6 18 6 7 10 16 9 19 -2 7 45 109 50
109 2 0 1 -21 -3 -47z m23 -15 c-3 -8 -6 -5 -6 6 -1 11 2 17 5 13 3 -3 4 -12
1 -19z m39 -29 c-8 -19 -15 -26 -15 -17 -1 23 20 75 26 62 2 -7 -3 -27 -11
-45z m-25 -57 c-6 -2 -11 -10 -11 -17 0 -13 -29 -29 -38 -20 -3 2 3 7 12 11 9
3 16 10 16 16 0 5 -4 7 -9 4 -5 -3 -8 6 -8 21 l0 26 13 -24 c13 -21 14 -22 13
-4 -2 35 2 41 12 15 7 -17 7 -26 0 -28z m-51 28 c0 -5 -5 -10 -11 -10 -5 0 -7
5 -4 10 3 6 8 10 11 10 2 0 4 -4 4 -10z m-5902 -25 c-3 -3 -9 2 -12 12 -6 14
-5 15 5 6 7 -7 10 -15 7 -18z m5894 -17 c-7 -7 -12 -8 -12 -2 0 14 12 26 19
19 2 -3 -1 -11 -7 -17z m-58 -23 c-11 -7 -15 -19 -11 -29 5 -11 3 -15 -5 -10
-8 5 -9 1 -4 -12 4 -10 8 -23 9 -28 3 -12 -32 -16 -39 -5 -3 5 -10 7 -15 3 -5
-3 -7 -9 -4 -14 3 -4 -1 -13 -8 -19 -28 -23 -13 19 19 54 17 19 30 35 28 35
-3 0 3 11 12 25 9 14 20 22 26 19 5 -3 1 -12 -8 -19z m76 -21 c0 -11 -41 -64
-50 -64 -11 0 32 69 43 70 4 0 7 -3 7 -6z m-47 -19 c-3 -9 -8 -14 -10 -11 -3
3 -2 9 2 15 9 16 15 13 8 -4z m-3 -59 c0 -2 -7 -7 -16 -10 -8 -3 -12 -2 -9 4
6 10 25 14 25 6z m-40 -36 c0 -5 -5 -10 -11 -10 -5 0 -7 5 -4 10 3 6 8 10 11
10 2 0 4 -4 4 -10z m-111 -21 c-24 -18 -24 -18 -4 -34 18 -14 17 -14 -13 0
-27 13 -31 19 -22 31 7 7 16 11 21 8 5 -3 9 -1 9 4 0 5 7 9 16 9 12 0 10 -5
-7 -18z m-65 -33 c-3 -7 -17 -19 -32 -25 -27 -12 -27 -12 3 13 35 30 36 30 29
12z m136 10 c0 -2 -8 -10 -17 -17 -16 -13 -17 -12 -4 4 13 16 21 21 21 13z
m-103 -32 c5 -17 -13 -35 -30 -28 -26 9 -20 26 5 18 21 -6 22 -5 8 11 -13 15
-13 18 -1 14 8 -3 16 -9 18 -15z m55 -3 c8 12 9 12 6 -1 -5 -17 -128 -113
-136 -105 -3 3 -14 -2 -24 -12 -32 -29 -31 -6 2 25 l31 31 -25 16 c-14 9 -30
14 -36 10 -5 -3 -10 -4 -10 -1 0 3 10 10 21 17 16 8 20 8 14 0 -5 -8 2 -10 22
-6 20 4 23 3 9 -3 -19 -8 -18 -9 5 -25 28 -20 52 -22 26 -3 -20 15 -8 30 16
20 8 -3 18 -1 21 5 4 6 14 7 24 4 14 -5 15 -3 5 8 -19 19 -16 34 3 18 13 -10
17 -10 26 2z m-217 -71 c3 -6 -1 -7 -9 -4 -18 7 -21 14 -7 14 6 0 13 -4 16
-10z m35 -20 c0 -5 -4 -10 -10 -10 -5 0 -10 5 -10 10 0 6 5 10 10 10 6 0 10
-4 10 -10z m-55 -10 c-27 -12 -43 -12 -25 0 8 5 22 9 30 9 10 0 8 -3 -5 -9z
m39 -25 c6 -16 -25 -33 -119 -64 -80 -26 -125 -35 -105 -21 8 5 23 10 33 10 9
0 17 4 17 10 0 5 6 7 14 4 8 -3 17 -1 21 5 3 6 18 11 32 11 21 0 23 3 14 14
-8 10 -9 16 -1 21 6 4 9 1 8 -6 -2 -6 3 -14 11 -17 8 -2 11 0 7 6 -4 6 2 8 16
5 19 -4 20 -3 8 7 -12 9 -10 10 9 5 19 -6 23 -4 18 9 -4 9 -2 16 2 16 5 0 11
-7 15 -15z m-286 -12 c-21 -2 -55 -2 -75 0 -21 2 -4 4 37 4 41 0 58 -2 38 -4z
m-3455 -10 c-7 -2 -19 -2 -25 0 -7 3 -2 5 12 5 14 0 19 -2 13 -5z m3150 -10
c-13 -2 -33 -2 -45 0 -13 2 -3 4 22 4 25 0 35 -2 23 -4z"/>
<path d="M3656 7812 c5 -5 43 -5 84 -2 l75 7 -84 1 c-47 1 -81 -2 -75 -6z"/>
<path d="M4248 7783 c6 -2 18 -2 25 0 6 3 1 5 -13 5 -14 0 -19 -2 -12 -5z"/>
<path d="M2460 7610 c-9 -6 -10 -10 -3 -10 6 0 15 5 18 10 8 12 4 12 -15 0z"/>
<path d="M8016 7512 c-3 -5 1 -9 9 -9 8 0 12 4 9 9 -3 4 -7 8 -9 8 -2 0 -6 -4
-9 -8z"/>
<path d="M8065 7449 c-3 -4 2 -6 10 -5 21 3 28 13 10 13 -9 0 -18 -4 -20 -8z"/>
<path d="M8130 7376 c0 -8 4 -17 9 -20 5 -4 7 3 4 14 -6 23 -13 26 -13 6z"/>
<path d="M8202 7180 c0 -14 2 -19 5 -12 2 6 2 18 0 25 -3 6 -5 1 -5 -13z"/>
<path d="M8263 6875 c-3 -9 -3 -18 -1 -21 3 -3 8 4 11 16 6 23 -1 27 -10 5z"/>
<path d="M8265 6594 c0 -35 3 -56 7 -47 9 24 9 85 0 100 -4 6 -7 -18 -7 -53z"/>
<path d="M8293 6600 c0 -25 2 -35 4 -22 2 12 2 32 0 45 -2 12 -4 2 -4 -23z"/>
<path d="M8261 6464 c0 -11 3 -14 6 -6 3 7 2 16 -1 19 -3 4 -6 -2 -5 -13z"/>
<path d="M2154 6220 c0 -52 1 -74 3 -47 2 26 2 68 0 95 -2 26 -3 4 -3 -48z"/>
<path d="M8283 5880 c0 -25 2 -35 4 -22 2 12 2 32 0 45 -2 12 -4 2 -4 -23z"/>
<path d="M2142 5580 c0 -14 2 -19 5 -12 2 6 2 18 0 25 -3 6 -5 1 -5 -13z"/>
<path d="M8280 5173 c0 -58 2 -104 5 -101 11 10 15 208 5 208 -6 0 -10 -43
-10 -107z"/>
<path d="M8259 5234 c-1 -35 -2 -37 -10 -14 -7 21 -8 20 -4 -9 3 -18 6 -72 6
-120 2 -80 3 -76 10 44 4 71 6 132 3 134 -2 2 -4 -13 -5 -35z"/>
<path d="M8251 3104 c0 -11 3 -14 6 -6 3 7 2 16 -1 19 -3 4 -6 -2 -5 -13z"/>
<path d="M8227 3001 c3 -12 9 -21 14 -21 14 0 11 16 -5 29 -12 10 -13 8 -9 -8z"/>
<path d="M8195 2991 c-3 -5 -1 -12 5 -16 5 -3 10 1 10 9 0 18 -6 21 -15 7z"/>
<path d="M2256 2699 c3 -5 10 -6 16 -3 8 5 9 1 5 -10 -4 -10 -3 -15 3 -11 6 4
14 -4 19 -17 7 -17 10 -19 10 -5 1 9 6 17 11 17 6 0 10 8 10 18 -1 15 -2 15
-16 -3 -16 -19 -16 -19 -10 5 3 14 3 19 0 12 -3 -6 -11 -9 -17 -5 -18 11 -38
12 -31 2z"/>
<path d="M2341 2695 c0 -14 28 -50 34 -43 3 3 -3 16 -14 29 -11 13 -20 20 -20
14z"/>
<path d="M3429 7110 c-107 -8 -160 -33 -231 -106 l-53 -55 -120 7 c-156 8
-189 -1 -248 -66 -54 -60 -111 -188 -137 -310 -27 -125 -39 -243 -52 -549
l-12 -273 -45 -37 c-77 -63 -101 -104 -101 -176 0 -89 37 -158 107 -199 29
-17 59 -38 67 -46 13 -13 15 -148 17 -1008 l2 -994 -51 -51 c-57 -58 -71 -99
-72 -202 0 -67 26 -124 72 -158 26 -20 47 -20 2625 -18 2475 1 2599 2 2623 19
48 35 70 96 70 197 0 103 -9 126 -69 180 l-41 37 2 996 3 996 32 21 c17 11 50
31 73 45 54 32 83 94 84 174 0 89 -40 156 -126 211 -28 17 -28 19 -28 119 0
332 -33 695 -77 845 -35 124 -112 230 -179 247 -26 7 -230 -2 -269 -11 -15 -3
-31 9 -62 49 -30 39 -60 63 -104 85 -59 29 -68 31 -178 31 -139 0 -174 -13
-257 -92 l-56 -53 -1427 -3 -1427 -4 -25 36 c-44 66 -162 130 -229 124 -8 0
-54 -4 -101 -8z m3631 -165 c101 -52 120 -168 120 -730 0 -217 -1 -395 -2
-395 -2 0 -27 9 -56 20 -75 29 -211 28 -259 -1 -19 -12 -36 -19 -39 -16 -3 3
-7 200 -10 438 -3 239 -9 472 -15 519 -13 126 -12 137 15 156 52 33 188 38
246 9z m-3471 -6 l33 -20 -6 -167 c-8 -222 -20 -913 -17 -932 3 -13 0 -13 -15
1 -28 24 -47 29 -156 40 -98 10 -100 9 -144 -16 l-44 -26 -1 213 c-3 775 6
868 91 910 53 27 213 25 259 -3z m2994 -123 c59 -10 77 -27 77 -72 0 -40 3
-40 -173 -52 -73 -6 -134 -15 -142 -22 -16 -13 -20 -36 -7 -43 4 -3 75 -10
157 -17 83 -6 158 -14 168 -16 13 -4 17 -16 17 -59 l0 -54 -42 -5 c-24 -3
-141 -7 -261 -10 -178 -3 -222 -7 -242 -20 -29 -19 -31 -34 -7 -52 12 -10 67
-14 207 -15 105 -1 224 -4 265 -8 l75 -6 3 -62 3 -62 -43 -5 c-24 -3 -95 -11
-158 -17 -63 -7 -126 -16 -139 -21 -66 -24 67 -60 224 -59 39 0 77 -4 85 -9
10 -7 5 -8 -17 -4 -18 4 -49 3 -70 -1 -32 -6 -35 -9 -18 -15 11 -5 31 -8 45
-8 23 0 22 1 -5 8 -27 7 -27 8 -5 8 14 0 36 -4 50 -8 23 -7 23 -8 3 -9 -28 -1
-41 -21 -14 -21 11 0 23 -4 26 -10 4 -7 -55 -10 -169 -10 l-176 0 0 -28 0 -29
158 -6 c173 -7 222 -14 222 -31 -1 -28 -20 -37 -91 -42 -41 -3 -87 -10 -102
-16 -20 -8 -31 -8 -40 1 -13 13 -47 15 -47 3 0 -4 -62 -8 -137 -7 l-138 0 -3
-27 -3 -28 126 0 c122 0 127 1 133 22 5 21 6 21 13 2 7 -18 8 -18 8 0 1 14 4
16 14 8 26 -22 104 -42 163 -42 36 0 68 -6 80 -14 18 -14 18 -15 1 -33 -16
-17 -49 -18 -422 -23 -223 -3 -405 -2 -405 3 0 4 16 24 36 45 20 20 32 31 28
23 -5 -9 -3 -12 5 -7 6 4 9 12 5 17 -10 17 17 40 40 34 14 -4 17 -3 8 3 -10 7
-9 12 4 23 14 11 16 11 10 0 -5 -8 -3 -17 5 -22 20 -12 26 -11 33 7 3 9 2 12
-5 8 -10 -6 -9 -1 19 53 7 13 12 27 12 32 0 13 -66 31 -115 31 -36 0 -43 4
-68 44 -64 102 -137 141 -254 134 l-65 -3 -21 55 c-44 119 -177 210 -306 210
-147 0 -314 -104 -342 -213 l-10 -43 -83 0 c-74 1 -87 -2 -126 -28 -23 -15
-77 -62 -118 -102 -48 -48 -81 -73 -90 -69 -8 3 -23 3 -33 0 -16 -5 -18 -13
-13 -48 3 -23 10 -55 15 -72 8 -25 6 -32 -13 -46 l-22 -17 36 -7 c20 -4 43 -5
50 -2 7 3 -2 6 -19 6 -18 1 -33 5 -33 10 0 5 9 7 20 4 11 -3 20 0 20 6 0 5 -6
8 -12 6 -8 -3 -13 4 -14 17 0 13 -4 32 -8 43 -5 11 1 5 13 -12 26 -41 37 -43
16 -3 -24 47 -18 45 24 -7 21 -27 52 -61 70 -75 17 -15 31 -29 31 -32 0 -3
-171 -4 -381 -4 -409 1 -414 2 -407 52 2 17 13 22 58 29 118 16 120 17 120 37
0 20 -14 24 -113 35 -56 6 -91 27 -84 49 2 7 42 13 100 17 53 3 100 8 103 12
4 4 14 1 22 -5 29 -25 136 1 130 31 -3 14 -25 16 -171 16 -182 0 -190 3 -185
55 3 24 7 25 88 32 174 16 223 26 290 62 36 20 90 41 120 47 54 12 54 12 25
21 -16 5 -140 8 -275 6 l-245 -3 -3 44 c-2 24 0 47 5 52 4 4 55 13 113 19 57
5 109 15 114 20 6 6 30 10 56 11 47 1 106 15 80 19 -8 2 -36 2 -62 0 -26 -1
-64 4 -85 11 -20 6 -78 17 -128 23 l-90 11 -3 56 -3 56 113 7 c207 13 298 35
298 71 0 20 -35 26 -220 35 -96 4 -176 8 -177 9 -6 2 -2 67 5 78 12 18 52 25
199 32 200 9 2559 6 2616 -3z m-3479 -12 c16 -6 21 -48 10 -78 -3 -8 -21 -20
-40 -26 -45 -15 -43 -27 7 -41 37 -11 40 -15 37 -43 l-3 -31 -96 0 c-81 0
-100 -3 -118 -19 -11 -10 -18 -23 -15 -27 3 -5 47 -9 99 -9 51 0 100 -2 107
-5 19 -7 15 -274 -3 -286 -7 -4 -64 -10 -128 -14 -64 -3 -137 -8 -163 -11 -60
-7 -62 -1 -48 162 13 154 31 240 66 328 38 96 55 106 175 106 53 0 104 -3 113
-6z m4434 -14 c26 -29 66 -112 97 -205 22 -64 28 -105 32 -212 6 -124 5 -133
-13 -140 -10 -4 -89 -7 -174 -7 l-155 -1 -7 145 c-4 79 -4 147 -2 150 3 3 53
7 110 8 77 3 104 7 104 17 0 18 -33 25 -132 25 l-88 0 0 30 c0 17 5 39 12 49
9 16 8 27 -6 59 -23 51 -18 84 14 93 14 4 62 7 107 8 71 1 85 -2 101 -19z
m-2272 -471 c33 -16 56 -38 85 -81 46 -67 72 -125 66 -142 -6 -15 24 -77 44
-89 12 -7 28 -1 67 26 40 27 60 35 84 32 55 -7 56 -23 2 -47 -27 -12 -52 -21
-55 -21 -3 1 -5 -18 -4 -42 1 -24 -2 -42 -7 -39 -4 3 -8 -6 -8 -20 0 -14 -2
-26 -4 -26 -2 0 -37 33 -77 73 -40 39 -74 71 -76 69 -2 -1 -20 5 -41 14 -25
11 -67 17 -133 17 -89 1 -102 -2 -161 -31 -74 -36 -124 -82 -171 -155 -36 -56
-64 -84 -74 -73 -3 3 -1 6 5 6 7 0 9 7 5 18 -3 9 -3 14 2 10 11 -11 35 11 35
31 0 13 -2 13 -9 2 -5 -7 -13 -11 -19 -7 -5 3 -12 -1 -16 -9 -3 -9 -18 -15
-38 -14 -31 1 -32 1 -8 9 22 7 21 8 -12 9 -20 1 -40 -3 -43 -9 -3 -5 -11 -10
-18 -10 -6 0 -2 8 10 17 l21 17 -22 18 c-21 17 -21 17 10 6 70 -25 137 16 137
84 0 33 -16 48 -53 48 -45 1 -53 13 -29 44 25 32 51 30 111 -10 53 -34 67 -31
74 17 5 26 10 36 15 28 4 -8 12 -10 16 -5 4 4 0 14 -10 21 -21 15 -17 39 15
93 15 24 26 32 39 29 11 -3 16 -1 13 5 -9 14 45 68 91 89 52 24 85 24 141 -2z
m-2174 -212 c4 -7 8 -22 8 -33 0 -18 -8 -22 -46 -28 -26 -3 -84 -6 -129 -6
-81 0 -158 -20 -152 -39 1 -5 -2 -9 -8 -8 -5 0 -13 -12 -16 -29 -4 -17 -7 9
-8 62 0 50 1 93 3 95 10 10 341 -3 348 -14z m4568 -26 c0 -22 -3 -42 -8 -45
-4 -2 -33 4 -65 15 -32 11 -63 16 -70 12 -7 -4 -6 0 2 10 12 15 12 17 -3 11
-9 -3 -16 -12 -16 -19 0 -10 -23 -14 -85 -17 -47 -2 -90 -1 -95 0 -14 5 -12
59 3 65 6 3 85 6 175 6 l162 1 0 -39z m-9 -126 c-1 -28 -5 -52 -7 -54 -1 -2
-17 2 -34 8 -17 5 -89 13 -161 17 l-129 7 0 27 0 28 153 9 c83 6 159 9 167 9
12 -1 14 -12 11 -51z m-4603 29 c33 -5 39 -17 22 -44 -7 -12 -31 -15 -120 -13
-61 0 -113 -3 -116 -8 -9 -15 -34 10 -27 27 3 8 -1 14 -11 14 -23 0 -20 13 7
26 21 11 168 10 245 -2z m2699 -26 c-3 -7 -5 -2 -5 12 0 14 2 19 5 13 2 -7 2
-19 0 -25z m3 -53 c0 -8 -4 -15 -10 -15 -5 0 -7 7 -4 15 4 8 8 15 10 15 2 0 4
-7 4 -15z m-478 -15 c70 -20 133 -97 153 -188 22 -105 -33 -236 -118 -280
-124 -64 -240 -18 -302 120 -39 85 -43 150 -15 215 49 115 160 167 282 133z
m428 -15 c-7 -9 -27 -14 -49 -13 l-36 1 35 4 c19 3 39 9 45 14 15 15 19 10 5
-6z m37 -17 c-3 -8 -6 -5 -6 6 -1 11 2 17 5 13 3 -3 4 -12 1 -19z m-2920 -10
c-3 -8 -6 -5 -6 6 -1 11 2 17 5 13 3 -3 4 -12 1 -19z m4803 -18 c0 -10 7 -20
15 -22 10 -2 12 -7 5 -18 -7 -12 -37 -16 -143 -18 -141 -4 -147 -2 -161 44 -6
20 -3 21 81 25 49 2 109 3 135 4 25 0 44 3 42 7 -3 4 2 5 10 2 9 -3 16 -14 16
-24z m30 -2 c0 -19 -16 -5 -17 14 -2 18 0 20 7 8 5 -8 10 -18 10 -22z m-4584
3 c11 9 14 8 14 -7 0 -16 2 -17 11 -4 8 12 9 10 7 -10 l-3 -25 -159 -3 c-110
-2 -163 1 -170 9 -8 8 -5 9 13 4 18 -5 22 -4 16 5 -5 7 -4 11 1 8 5 -3 43 -2
84 2 l75 7 -55 3 c-43 3 -33 5 45 9 55 3 102 2 103 -2 2 -4 10 -3 18 4z m434
-134 c35 -17 50 -33 68 -69 23 -45 23 -96 1 -82 -6 3 -7 -10 -4 -33 10 -68
-40 -121 -134 -139 -83 -17 -192 62 -205 148 -13 84 41 165 129 196 38 13 88
6 145 -21z m3580 5 c38 -19 87 -84 92 -121 2 -19 -3 -27 -22 -32 -16 -4 -19
-7 -7 -8 24 -1 22 -44 -5 -92 -29 -52 -109 -95 -160 -85 -45 8 -113 57 -138
99 -24 38 -26 116 -6 155 45 86 162 126 246 84z m-422 -98 c33 -5 34 -5 26
-47 -4 -23 -7 -52 -8 -64 0 -16 -6 -23 -19 -23 -10 0 -15 -5 -12 -10 5 -7 -21
-10 -77 -9 -45 1 -287 1 -537 0 -249 0 -457 1 -462 4 -4 3 -1 24 7 47 7 22 14
55 14 74 0 32 1 33 48 36 76 5 984 -2 1020 -8z m-3599 -3 c8 -5 12 -18 8 -32
-3 -13 1 -42 8 -63 8 -22 12 -43 9 -48 -3 -4 -104 -8 -224 -8 l-219 0 -36 31
c-41 36 -46 73 -15 107 20 21 27 22 238 22 119 0 223 -4 231 -9z m1755 3 c9
-3 16 -18 16 -33 0 -14 9 -45 20 -68 13 -30 15 -43 7 -44 -92 -8 -494 -13
-824 -11 l-283 2 4 23 c3 12 5 48 5 80 l1 57 519 0 c286 0 526 -3 535 -6z
m3003 -16 c41 -38 24 -104 -34 -126 -16 -6 -115 -12 -231 -14 l-202 -3 0 83 0
82 222 0 c214 0 223 -1 245 -22z m-1721 -341 l27 -24 -21 -35 c-38 -62 -27
-105 54 -208 45 -58 83 -92 224 -201 151 -117 225 -196 266 -283 35 -73 37
-84 37 -174 1 -84 -3 -105 -25 -154 -29 -63 -94 -139 -148 -173 -150 -95 -373
-62 -472 70 -73 97 -89 209 -43 302 14 28 37 62 51 76 59 60 197 94 266 67 89
-35 145 -115 135 -192 -11 -78 -95 -158 -152 -144 -38 10 -67 40 -67 70 0 36
17 47 63 40 98 -16 87 109 -12 136 -101 28 -199 -61 -199 -180 0 -63 16 -94
74 -148 52 -48 78 -57 166 -57 250 0 367 305 193 504 -25 29 -83 81 -127 114
-213 161 -381 320 -416 393 -30 60 -26 120 10 177 24 39 35 47 59 47 17 0 42
-10 57 -23z m-1658 -21 c52 -59 51 -143 -3 -216 -42 -57 -181 -184 -304 -277
-242 -184 -290 -248 -299 -392 -4 -73 -1 -95 16 -133 49 -111 151 -178 270
-178 178 0 298 179 209 312 -31 45 -83 78 -124 78 -49 0 -101 -27 -119 -62
-17 -33 -12 -57 16 -83 19 -17 21 -17 38 -2 26 24 49 21 68 -8 21 -32 11 -61
-28 -81 -38 -20 -85 -14 -135 17 -93 58 -80 211 25 284 40 27 51 30 120 30 59
-1 87 -6 118 -22 89 -47 160 -166 152 -256 -5 -62 -43 -149 -87 -200 -65 -73
-199 -114 -313 -96 -213 34 -328 184 -315 411 9 162 68 248 295 429 180 143
188 151 249 225 70 83 86 116 73 149 -6 15 -19 29 -30 32 -45 12 -7 73 46 73
24 0 39 -8 62 -34z m-1633 -38 c3 -13 7 -32 7 -43 1 -14 10 -21 27 -22 14 -1
33 -3 41 -4 36 -5 91 2 85 11 -3 6 -2 10 3 10 6 0 12 -7 16 -15 4 -12 -4 -15
-37 -17 -39 -1 -64 -3 -94 -7 -7 0 -13 -14 -13 -30 0 -16 6 -31 13 -34 6 -2
50 -2 97 0 80 5 86 4 98 -17 8 -13 9 -19 2 -15 -6 4 -29 -3 -51 -14 -22 -12
-45 -19 -50 -15 -6 3 -18 3 -27 -1 -15 -6 -14 -8 8 -20 14 -8 35 -14 48 -15
24 0 62 -18 74 -35 4 -5 8 -6 8 -2 0 5 7 1 16 -7 12 -13 14 -27 9 -65 -4 -31
-3 -51 4 -56 6 -3 11 -24 11 -45 0 -29 -5 -40 -19 -45 -39 -12 -299 -11 -312
2 -9 9 -10 70 -6 240 6 227 12 283 28 283 5 0 11 -10 14 -22z m862 -4 c19 -25
16 -51 -7 -74 -24 -24 -40 -26 -40 -6 0 8 -5 18 -10 21 -6 4 -9 1 -8 -7 2 -9
-16 -15 -62 -19 -36 -4 -114 -12 -174 -18 -113 -12 -139 -9 -168 17 -19 16
-25 81 -9 98 6 5 105 8 238 7 204 -1 229 -3 240 -19z m3563 4 c27 -29 25 -50
-6 -79 -25 -24 -29 -24 -231 -27 -201 -3 -206 -3 -229 19 -13 12 -24 32 -24
45 0 45 20 49 219 46 111 -2 196 1 211 7 35 14 37 14 60 -11z m-3220 -4 c18
-4 50 -24 71 -44 31 -29 39 -44 39 -73 0 -49 -8 -65 -40 -82 -34 -18 -40 -12
-40 37 0 75 -81 116 -127 66 -46 -51 -37 -99 23 -124 39 -16 46 -47 14 -64
-26 -14 -171 2 -156 17 11 12 45 10 39 -1 -3 -6 2 -4 11 4 14 14 15 23 5 73
-15 75 6 137 60 172 39 26 52 28 101 19z m2514 -24 c53 -47 67 -84 56 -159 -5
-35 -16 -72 -26 -82 -37 -41 -134 -14 -211 60 -37 34 -43 46 -43 80 0 70 70
130 152 131 28 0 46 -8 72 -30z m-1219 -25 c42 -9 109 -34 167 -65 54 -27 104
-50 113 -50 9 0 27 24 42 55 29 60 53 74 89 55 30 -17 32 -27 39 -286 7 -235
5 -251 -39 -286 -26 -22 -87 -23 -125 -3 -16 8 -40 28 -55 45 -25 30 -25 35
-19 119 8 125 1 154 -55 210 -84 84 -213 123 -335 100 -75 -13 -111 -30 -160
-78 -130 -122 -104 -299 61 -422 31 -23 74 -55 95 -71 l37 -29 0 25 c0 14 10
37 23 52 21 23 28 26 61 20 41 -8 56 -32 56 -90 0 -31 3 -33 68 -56 123 -42
254 -116 316 -177 98 -97 155 -244 136 -355 -44 -274 -286 -462 -595 -461
-149 0 -271 39 -392 126 -24 17 -45 28 -46 26 -2 -2 -12 -31 -23 -63 -23 -72
-45 -90 -75 -60 -15 15 -23 43 -31 100 -5 43 -23 122 -40 174 -56 174 -36 270
64 319 54 26 81 26 135 1 80 -36 105 -120 59 -205 -29 -55 -23 -105 19 -165
81 -117 252 -175 404 -136 195 50 292 247 205 418 -24 48 -107 120 -191 165
-31 17 -33 17 -55 -4 -54 -49 -93 -35 -113 43 l-12 49 -99 26 c-110 28 -146
45 -219 100 -137 104 -214 295 -183 459 13 73 78 188 137 243 124 116 348 171
536 132z m2316 -80 c14 2 17 -18 23 -159 4 -90 4 -175 0 -190 l-7 -28 -142 4
c-144 3 -167 10 -115 35 22 11 22 12 5 13 -15 0 -17 2 -6 9 11 7 10 11 -4 19
-14 7 -19 25 -21 78 -2 38 0 64 4 58 4 -7 20 -12 36 -12 15 0 31 -4 35 -9 3
-6 13 -13 21 -16 12 -4 11 -6 -2 -6 -22 -1 -24 -43 -4 -60 8 -7 32 -11 53 -9
31 2 39 8 47 30 8 23 6 31 -10 46 -11 10 -25 17 -32 14 -17 -5 -15 3 4 22 14
15 14 20 -3 53 -17 32 -25 37 -57 39 -23 0 -35 -3 -33 -10 3 -6 -10 -12 -28
-13 -28 -2 -32 0 -28 16 9 36 36 48 117 55 44 3 89 12 100 20 12 7 23 10 26 6
3 -4 12 -6 21 -5z m-4336 -157 c13 -60 26 -163 32 -266 4 -72 10 -109 16 -103
5 5 13 78 18 162 8 142 19 197 32 153 12 -41 27 -180 27 -257 1 -78 1 -80 14
-51 8 18 20 57 27 88 7 34 17 56 26 56 7 0 13 -1 13 -2 0 -2 7 -52 15 -113 8
-60 15 -134 15 -162 0 -29 4 -53 8 -53 5 0 15 112 23 249 8 138 18 253 22 257
4 4 10 4 15 0 4 -4 8 -341 10 -749 3 -685 2 -741 -14 -750 -13 -8 -14 -11 -3
-18 9 -6 1 -9 -24 -9 -23 0 -36 4 -32 10 3 6 -1 7 -10 4 -9 -4 -27 -1 -40 6
-20 11 -26 10 -40 -4 -20 -19 -95 -22 -95 -3 0 9 -3 8 -9 -2 -5 -7 -26 -14
-47 -15 l-39 -1 -2 775 c-1 426 0 785 3 798 2 12 11 22 19 22 8 0 17 -10 20
-22z m3581 11 c13 -21 43 -283 44 -373 0 -49 2 -87 5 -85 7 7 35 285 35 346 0
51 12 75 26 52 3 -6 11 -109 16 -228 5 -119 11 -227 15 -241 l6 -25 8 30 c7
25 36 331 40 425 2 54 17 -60 28 -213 12 -169 25 -225 35 -147 3 25 10 113 16
195 6 83 13 170 17 195 6 45 6 45 16 15 5 -18 9 -280 8 -635 -2 -837 -3 -869
-21 -880 -20 -13 -230 -13 -230 0 0 6 -6 10 -12 10 -8 0 -14 15 -15 35 -2 20
2 35 8 35 6 0 9 7 6 15 -4 8 -2 17 4 20 5 4 8 1 7 -7 -2 -8 4 -12 17 -9 11 2
39 4 62 5 23 0 39 3 37 5 -2 3 10 12 28 20 18 9 35 23 37 31 21 77 30 102 31
85 2 -17 3 -17 7 -2 2 9 9 17 14 17 5 0 4 6 -3 14 -8 8 -15 10 -19 4 -3 -5
-15 6 -27 26 -11 19 -39 46 -61 61 -43 27 -48 39 -30 79 7 14 8 33 5 43 -7 17
-8 17 -22 -1 -8 -11 -14 -40 -14 -65 -1 -43 -3 -48 -41 -71 -23 -14 -45 -24
-50 -23 -16 5 -21 -41 -13 -126 4 -47 7 -90 6 -94 -2 -5 -5 -35 -9 -68 -6 -60
-6 -60 -37 -57 l-31 3 0 780 c0 429 3 788 7 798 8 19 33 23 44 6z m-2949 -133
c20 -20 -97 -76 -131 -63 -19 8 -22 63 -3 71 17 8 125 1 134 -8z m2751 -23
c-3 -37 -4 -38 -40 -37 -22 1 -48 11 -67 25 -49 39 -40 49 40 49 l70 0 -3 -37z
m-2243 -32 c34 -19 45 -61 20 -81 -8 -7 -47 -15 -85 -18 -78 -5 -110 10 -110
53 0 21 31 57 60 68 22 9 81 -2 115 -22z m1705 14 c63 -33 59 -86 -8 -105 -48
-13 -118 -13 -143 0 -27 15 -24 60 6 93 21 22 35 27 71 27 25 0 58 -7 74 -15z
m-3020 -205 c0 -27 -1 -50 -2 -51 -2 0 -58 -6 -126 -13 -68 -8 -128 -18 -134
-24 -24 -24 6 -32 126 -32 l124 0 6 -35 c13 -70 -6 -85 -129 -105 -60 -10 -93
-30 -81 -48 6 -11 76 -22 156 -25 41 -2 45 -4 48 -29 2 -16 -2 -28 -8 -28 -6
0 -8 10 -4 25 5 20 3 25 -14 25 -11 0 -22 -8 -25 -20 -3 -11 -1 -20 4 -20 5 0
9 7 9 15 0 8 5 15 11 15 6 0 8 -7 5 -16 -3 -9 -6 -22 -6 -30 0 -11 -4 -13 -17
-6 -11 7 -27 4 -50 -9 -21 -12 -43 -17 -58 -13 -19 5 -25 2 -25 -10 0 -9 6
-16 13 -17 88 -4 111 -10 119 -34 5 -18 6 -17 7 5 2 24 2 24 16 6 22 -29 18
-55 -7 -61 -13 -3 -86 -4 -163 -3 l-140 3 0 285 0 285 40 6 c22 3 100 7 173 8
l132 1 0 -50z m4538 -197 c1 -131 -1 -259 -4 -285 -5 -43 -8 -46 -41 -53 -41
-7 -67 9 -59 39 3 11 0 26 -6 33 -6 7 -7 13 -3 13 5 0 -2 9 -15 20 -13 11 -30
20 -38 20 -16 0 -94 40 -103 54 -4 5 -20 6 -35 2 -24 -6 -27 -5 -16 6 8 8 49
15 110 18 74 4 97 8 97 19 0 26 -51 52 -123 63 -64 9 -70 12 -55 24 17 12 16
13 -4 9 -13 -2 -26 1 -29 7 -4 7 -2 8 4 4 8 -5 12 5 12 31 0 21 4 43 8 48 10
14 67 16 137 4 100 -16 169 18 83 42 -24 6 -73 12 -110 13 -38 0 -68 5 -68 9
0 5 -6 7 -14 4 -10 -4 -12 0 -8 15 3 14 1 19 -6 14 -7 -4 -10 6 -9 29 l2 35
145 0 146 0 2 -237z m-308 215 c0 -7 -5 -20 -10 -28 -8 -12 -10 -9 -10 13 0
15 5 27 10 27 6 0 10 -6 10 -12z m5 -57 c3 -5 1 -12 -5 -16 -5 -3 -10 1 -10 9
0 18 6 21 15 7z m-4255 -616 c11 -7 14 -98 3 -109 -4 -3 -13 4 -20 16 l-12 23
-1 -25 c-1 -23 -2 -23 -10 -5 -7 18 -8 19 -15 3 -4 -10 -11 -18 -17 -18 -5 0
-7 4 -3 9 3 5 1 12 -5 16 -5 3 -10 -1 -10 -10 0 -13 -4 -14 -22 -4 -12 6 -53
12 -92 13 -69 1 -71 0 -71 -24 0 -24 3 -25 92 -35 85 -9 90 -11 66 -22 -15 -7
-43 -13 -62 -12 -29 0 -32 2 -16 9 18 8 18 9 2 9 -10 1 -20 -5 -23 -13 -5 -12
-10 -12 -38 -1 -28 12 -33 12 -33 -1 0 -9 7 -12 19 -8 17 5 18 4 6 -15 -7 -12
-19 -19 -25 -16 -9 3 -14 -10 -15 -43 l-1 -47 -4 43 c-2 23 -8 42 -14 42 -5 0
-9 50 -9 115 l0 114 143 3 c153 3 172 2 187 -7z m763 -2 c31 -17 -27 -69 -67
-59 -39 10 -45 60 -8 69 17 4 60 -2 75 -10z m2815 -20 c2 -16 -4 -26 -22 -35
-37 -16 -76 3 -76 37 0 25 2 26 48 23 40 -3 47 -6 50 -25z m982 -23 l0 -50
-77 6 c-43 3 -97 1 -121 -4 -36 -8 -43 -8 -38 4 3 8 -1 14 -9 14 -18 0 -20 17
-2 23 7 2 8 8 3 13 -5 5 -11 4 -13 -3 -6 -18 -32 -16 -39 2 -11 28 -20 15 -16
-22 6 -54 -4 -37 -12 20 l-7 47 165 0 166 0 0 -50z m-3459 -17 c40 -13 70 -33
117 -78 34 -33 82 -79 106 -101 26 -24 47 -54 51 -73 11 -49 -12 -124 -50
-165 -28 -31 -39 -36 -78 -36 -38 0 -49 5 -71 31 -29 34 -31 42 -16 70 11 19
40 27 40 10 0 -12 52 -11 68 1 6 6 12 27 12 46 0 64 -64 132 -180 193 -61 32
-167 33 -224 3 -61 -32 -81 -65 -81 -136 0 -56 2 -62 35 -89 43 -36 84 -38
105 -5 15 22 15 27 0 55 -17 33 -7 71 18 71 15 0 77 -44 89 -62 39 -63 -60
-189 -149 -188 -33 1 -70 25 -53 35 6 4 -16 31 -54 68 -36 34 -70 75 -75 90
-37 96 36 218 155 261 55 20 171 20 235 -1z m2260 2 c97 -33 159 -116 159
-214 0 -83 -38 -137 -104 -148 l-36 -6 35 53 c40 59 44 94 16 148 -29 56 -81
85 -158 90 -56 4 -71 1 -127 -27 -70 -34 -171 -133 -182 -177 -10 -39 10 -74
42 -74 15 0 35 7 44 15 16 14 19 13 34 -10 10 -15 16 -33 14 -42 -9 -45 -117
-78 -168 -51 -43 23 -70 75 -70 135 0 69 19 114 61 143 19 13 63 51 99 83 36
33 83 68 105 78 50 23 173 25 236 4z m1118 -92 c54 -5 62 -9 58 -24 -3 -10 0
-20 5 -21 6 -2 7 -19 3 -42 -7 -33 -9 -36 -18 -20 -15 28 -15 28 -32 14 -20
-17 -20 4 1 24 8 9 17 24 19 34 3 17 -1 17 -48 8 -34 -7 -52 -7 -54 0 -2 5
-20 9 -41 7 -20 -1 -28 0 -18 3 15 5 16 8 5 15 -17 11 31 12 120 2z m21 -43
c-19 -13 -30 -13 -30 0 0 6 10 10 23 10 18 0 19 -2 7 -10z m-553 -67 c13 -19
12 -24 -7 -43 -27 -27 -52 -22 -64 12 -19 53 40 79 71 31z m-661 -11 c7 -4 11
-30 10 -63 -1 -64 13 -89 53 -89 45 -1 97 -60 53 -60 -15 0 -15 -2 -2 -10 13
-9 13 -10 0 -11 -10 0 -9 -3 5 -9 13 -6 -3 -8 -49 -6 -61 4 -72 8 -103 38 -59
57 -77 122 -48 178 19 37 53 50 81 32z m1127 -38 c45 -6 45 -6 35 -36 -11 -30
-11 -30 -67 -23 -60 7 -87 24 -78 49 7 17 36 20 110 10z m-143 -131 c0 -10 59
-17 142 -17 37 0 62 -4 55 -8 -7 -4 2 -8 21 -8 26 0 35 -5 42 -26 6 -14 10
-27 10 -30 0 -3 -54 -3 -120 -2 -106 3 -121 5 -134 23 -21 28 -37 75 -25 75 5
0 9 -3 9 -7z m-4343 -49 c-3 -3 -12 -4 -19 -1 -8 3 -5 6 6 6 11 1 17 -2 13 -5z
m-13 -25 c20 0 21 -1 1 -9 -25 -11 -225 -13 -225 -2 0 4 15 6 33 4 17 -2 50 1
72 7 22 5 53 8 69 5 16 -2 38 -4 50 -5z m4123 -189 c68 0 93 -22 93 -82 0 -24
-4 -48 -8 -54 -4 -7 -83 -14 -218 -18 l-212 -7 -21 27 c-26 33 -28 94 -3 117
22 20 81 26 211 21 57 -2 128 -4 158 -4z m-4149 -16 c12 -3 22 -12 22 -19 0
-30 -81 -58 -160 -57 -8 1 -26 -2 -39 -4 -20 -4 -22 -7 -10 -15 7 -5 21 -8 29
-8 10 0 9 3 -5 10 -15 7 -10 8 17 4 21 -3 48 -1 60 6 20 11 21 10 10 -3 -13
-16 -4 -30 28 -40 8 -3 -43 -7 -115 -11 -122 -5 -131 -4 -147 15 -19 22 -24
83 -9 107 5 8 29 18 53 22 46 8 228 4 266 -7z m692 -9 c19 -20 22 -31 17 -66
-7 -53 -27 -74 -61 -65 -14 3 -26 11 -26 17 0 6 8 6 21 -2 15 -8 19 -8 15 0
-4 6 -4 17 1 24 4 6 9 20 10 30 3 17 -2 18 -54 12 -32 -3 -103 -7 -158 -8
-100 -2 -100 -2 -50 -13 45 -11 47 -12 16 -13 -27 -1 -32 -4 -28 -20 4 -16 -3
-19 -62 -25 -79 -8 -94 -4 -110 30 -17 38 -13 82 9 104 19 19 33 20 228 20
l209 0 23 -25z m2890 8 c18 -17 -23 -53 -59 -53 -17 0 -33 -5 -36 -11 -4 -6
-13 -8 -21 -5 -7 3 -20 -4 -27 -14 -8 -11 -16 -17 -19 -14 -6 6 -93 11 -303
17 -115 4 -121 3 -35 -2 96 -6 100 -7 40 -11 -36 -1 -92 -3 -125 -2 l-60 1 45
-9 c24 -5 78 -8 120 -6 118 5 130 -10 14 -18 -135 -10 -801 -6 -839 4 -16 5
-48 11 -70 14 -22 3 -85 13 -140 21 -110 18 -581 32 -643 20 -58 -12 -13 -24
83 -22 l80 1 -85 6 -85 6 71 2 c39 1 87 -1 105 -5 l34 -7 -45 -13 c-32 -9 -35
-11 -12 -8 18 3 74 2 125 -2 73 -5 86 -8 62 -15 -16 -4 -36 -6 -42 -3 -7 2
-149 5 -315 5 -308 1 -396 6 -381 21 4 4 24 10 43 12 29 3 28 4 -7 3 -24 -1
-43 1 -43 4 0 3 -12 6 -27 5 -20 0 -33 9 -50 34 -13 19 -23 38 -23 42 0 13 85
14 1397 14 938 0 1265 -3 1273 -12z m1175 3 c21 -15 25 -97 5 -121 -14 -17
-50 -20 -50 -4 0 5 5 7 10 4 6 -4 10 5 10 19 l0 26 -99 0 c-55 0 -111 4 -124
9 -28 11 -53 67 -34 75 7 2 69 5 138 5 90 1 130 -3 144 -13z m-3069 -104 c-10
-2 -22 0 -28 6 -6 6 0 7 19 4 21 -5 23 -7 9 -10z m-1729 2 c-3 -3 -12 -4 -19
-1 -8 3 -5 6 6 6 11 1 17 -2 13 -5z m3286 -1 c-13 -2 -33 -2 -45 0 -13 2 -3 4
22 4 25 0 35 -2 23 -4z m-1258 -26 c57 -2 46 -3 -40 -4 -66 0 -111 1 -100 4
11 3 24 9 29 14 6 5 14 5 21 -1 6 -5 47 -11 90 -13z m-1538 7 c-3 -3 -12 -4
-19 -1 -8 3 -5 6 6 6 11 1 17 -2 13 -5z m2972 -10 c2 -2 -34 -3 -80 -3 -54 1
-73 4 -54 8 29 6 126 3 134 -5z"/>
<path d="M6936 6775 c-32 -30 -33 -65 -3 -92 47 -44 97 -41 122 7 22 42 19 66
-11 89 -35 28 -75 26 -108 -4z"/>
<path d="M6939 6439 c-36 -39 -36 -50 1 -92 45 -52 67 -53 111 -7 35 37 37 42
27 70 -22 66 -91 80 -139 29z"/>
<path d="M6954 6120 c-31 -12 -74 -68 -74 -96 0 -58 60 -124 112 -124 73 0
128 55 128 127 -1 78 -85 126 -166 93z m74 -81 c2 -15 -4 -32 -14 -39 -14 -12
-18 -12 -30 5 -26 36 -16 68 21 63 13 -2 21 -12 23 -29z"/>
<path d="M6871 6074 c0 -11 3 -14 6 -6 3 7 2 16 -1 19 -3 4 -6 -2 -5 -13z"/>
<path d="M3367 6783 c-33 -37 -23 -89 22 -116 40 -23 63 -21 95 8 54 50 19
125 -61 125 -25 0 -46 -6 -56 -17z"/>
<path d="M3365 6450 c-29 -32 -25 -88 9 -116 38 -34 78 -31 110 7 14 17 26 39
26 49 0 10 -12 32 -26 49 -32 38 -90 43 -119 11z"/>
<path d="M3392 6122 c-34 -11 -79 -58 -86 -92 -19 -98 113 -176 188 -111 24
21 46 65 46 91 0 39 -31 88 -65 104 -35 17 -46 18 -83 8z m54 -88 c9 -35 -18
-63 -40 -44 -16 13 -22 51 -9 63 16 16 43 6 49 -19z"/>
<path d="M4550 6715 c-8 -2 -45 -7 -82 -10 -100 -10 -90 -34 24 -59 60 -13
322 -7 376 9 57 17 68 39 25 49 -35 7 -323 17 -343 11z"/>
<path d="M5941 6701 c-42 -11 -57 -32 -34 -48 18 -14 149 -16 192 -4 25 7 50
36 40 46 -11 10 -163 14 -198 6z"/>
<path d="M5490 6680 c-11 -7 -4 -10 25 -10 22 0 47 5 55 10 11 7 4 10 -25 10
-22 0 -47 -5 -55 -10z"/>
<path d="M4633 6421 c-47 -8 -58 -15 -49 -29 10 -17 62 -21 132 -11 64 9 95
22 83 34 -10 9 -124 14 -166 6z"/>
<path d="M5890 6187 c0 -18 64 -33 172 -41 73 -5 85 1 64 29 -11 15 -32 19
-125 23 -96 4 -111 2 -111 -11z"/>
<path d="M4360 5940 c0 -11 4 -20 8 -20 4 0 8 9 9 20 1 11 -2 20 -8 20 -5 0
-9 -9 -9 -20z"/>
<path d="M4078 5913 c-23 -4 -28 -9 -28 -35 l0 -31 108 5 c59 2 116 9 127 16
11 6 14 12 7 12 -7 0 -11 4 -8 9 3 5 -2 12 -11 15 -23 9 -161 16 -195 9z"/>
<path d="M6101 5884 c0 -11 3 -14 6 -6 3 7 2 16 -1 19 -3 4 -6 -2 -5 -13z"/>
<path d="M5963 5873 c-15 -5 -17 -23 -4 -23 5 0 11 7 15 15 3 8 4 15 3 14 -1
0 -8 -3 -14 -6z"/>
<path d="M5920 5861 c0 -6 4 -13 10 -16 6 -3 7 1 4 9 -7 18 -14 21 -14 7z"/>
<path d="M5902 5823 c-12 -2 -27 -14 -33 -26 -9 -20 -9 -21 4 -4 11 13 25 17
53 14 22 -3 29 -2 16 0 -12 2 -20 9 -17 14 4 5 5 8 3 8 -2 -1 -13 -4 -26 -6z"/>
<path d="M5978 5823 c7 -3 16 -2 19 1 4 3 -2 6 -13 5 -11 0 -14 -3 -6 -6z"/>
<path d="M4343 5803 c9 -2 25 -2 35 0 9 3 1 5 -18 5 -19 0 -27 -2 -17 -5z"/>
<path d="M5895 5790 c-3 -5 -1 -10 4 -10 6 0 11 5 11 10 0 6 -2 10 -4 10 -3 0
-8 -4 -11 -10z"/>
<path d="M4363 5783 c9 -2 23 -2 30 0 6 3 -1 5 -18 5 -16 0 -22 -2 -12 -5z"/>
<path d="M2945 6340 c-12 -5 1 -6 35 -3 30 3 57 7 59 9 9 8 -75 2 -94 -6z"/>
<path d="M7435 6690 c-3 -5 -1 -10 4 -10 6 0 11 5 11 10 0 6 -2 10 -4 10 -3 0
-8 -4 -11 -10z"/>
<path d="M7538 6433 c6 -2 18 -2 25 0 6 3 1 5 -13 5 -14 0 -19 -2 -12 -5z"/>
<path d="M5300 6194 c-19 -13 -40 -27 -45 -32 -6 -5 -17 -7 -25 -4 -12 3 -12
1 -2 -6 7 -5 10 -16 6 -26 -6 -16 -4 -17 12 -7 31 17 59 44 78 74 22 32 21 32
-24 1z"/>
<path d="M5068 6174 c13 -24 40 -49 47 -42 3 2 -9 18 -26 34 -24 22 -29 24
-21 8z"/>
<path d="M5516 5926 c5 -14 4 -17 -5 -12 -9 6 -9 3 1 -13 l13 -22 3 22 c2 12
-1 26 -8 33 -8 8 -9 6 -4 -8z"/>
<path d="M5132 5793 c-45 -22 -66 -65 -67 -138 -1 -167 162 -231 259 -102 28
38 34 133 11 181 -33 69 -127 97 -203 59z m97 -109 c12 -27 7 -64 -9 -64 -15
0 -50 42 -50 60 0 39 42 41 59 4z"/>
<path d="M3372 5625 c-58 -26 -69 -99 -21 -139 76 -65 182 -1 145 87 -24 57
-69 76 -124 52z"/>
<path d="M3541 5513 c7 -12 15 -20 18 -17 3 2 -3 12 -13 22 -17 16 -18 16 -5
-5z"/>
<path d="M3293 5467 c0 -8 6 -14 14 -14 9 0 10 4 2 14 -6 7 -12 13 -14 13 -1
0 -2 -6 -2 -13z"/>
<path d="M6974 5620 c-28 -11 -54 -48 -54 -76 0 -34 32 -82 58 -89 64 -16 138
50 121 108 -16 57 -67 81 -125 57z"/>
<path d="M6108 5544 c-53 -28 -26 -74 43 -74 57 0 74 61 22 81 -31 11 -32 11
-65 -7z"/>
<path d="M3778 5578 c-3 -16 -1 -25 5 -21 5 3 6 -4 2 -18 -7 -22 -7 -23 10 -9
11 8 16 10 12 4 -7 -11 39 -42 48 -32 3 3 -7 19 -22 35 -15 16 -33 37 -39 48
-10 18 -11 18 -16 -7z"/>
<path d="M4230 5535 c-15 -18 -4 -52 19 -60 25 -7 70 11 78 31 13 36 -70 61
-97 29z"/>
<path d="M7375 5570 c-5 -9 -4 -11 3 -6 7 4 12 3 12 -3 0 -5 -4 -13 -10 -16
-5 -3 -10 -12 -10 -18 0 -7 4 -6 10 3 9 13 14 7 11 -12 0 -5 10 -8 23 -8 13 0
26 -5 28 -12 3 -7 7 -6 11 5 4 11 1 17 -8 17 -7 0 -25 14 -38 31 -18 23 -27
28 -32 19z"/>
<path d="M2880 4851 c-35 -10 -38 -39 -5 -51 49 -19 84 -13 95 16 6 14 8 30 4
35 -6 10 -57 10 -94 0z"/>
<path d="M3530 5120 c-18 -12 -2 -12 25 0 13 6 15 9 5 9 -8 0 -22 -4 -30 -9z"/>
<path d="M7070 5120 c-10 -7 6 -9 55 -9 50 1 63 3 45 9 -35 11 -82 11 -100 0z"/>
<path d="M7205 5120 c-3 -5 -1 -10 4 -10 6 0 11 5 11 10 0 6 -2 10 -4 10 -3 0
-8 -4 -11 -10z"/>
<path d="M6422 5093 c-13 -5 -42 -55 -42 -72 0 -10 45 -34 87 -46 32 -9 63 11
63 41 0 28 -17 65 -34 76 -12 9 -54 9 -74 1z"/>
<path d="M7501 4974 c0 -11 3 -14 6 -6 3 7 2 16 -1 19 -3 4 -6 -2 -5 -13z"/>
<path d="M3393 3814 c-3 -8 -3 -35 0 -58 6 -42 5 -45 -32 -71 -45 -30 -51 -46
-51 -134 0 -51 3 -62 14 -58 19 7 32 -31 17 -46 -19 -19 -12 -28 7 -9 11 9 17
21 14 25 -2 5 5 4 17 -2 29 -16 120 -10 114 6 -5 14 12 18 20 6 2 -5 2 -2 1 4
-2 7 4 29 12 49 11 25 13 52 9 83 -8 57 -11 62 -52 86 -37 22 -36 19 -24 62
14 49 4 73 -30 73 -18 0 -32 -6 -36 -16z m48 -184 c28 -15 25 -58 -5 -72 -14
-6 -32 -8 -40 -5 -22 9 -21 63 2 76 21 13 20 13 43 1z"/>
<path d="M3566 3605 c-3 -9 -5 -29 -5 -43 1 -20 3 -17 9 13 8 43 7 57 -4 30z"/>
<path d="M3312 3420 c0 -14 2 -19 5 -12 2 6 2 18 0 25 -3 6 -5 1 -5 -13z"/>
<path d="M6922 3385 c0 -16 2 -22 5 -12 2 9 2 23 0 30 -3 6 -5 -1 -5 -18z"/>
<path d="M6941 3374 c0 -11 3 -14 6 -6 3 7 2 16 -1 19 -3 4 -6 -2 -5 -13z"/>
<path d="M7352 4350 c0 -14 2 -19 5 -12 2 6 2 18 0 25 -3 6 -5 1 -5 -13z"/>
<path d="M2996 3831 c-4 -5 4 -15 16 -22 22 -12 22 -11 8 7 -8 10 -15 20 -16
22 -1 2 -5 -1 -8 -7z"/>
<path d="M3051 3824 c0 -11 3 -14 6 -6 3 7 2 16 -1 19 -3 4 -6 -2 -5 -13z"/>
<path d="M7608 3863 c7 -3 16 -2 19 1 4 3 -2 6 -13 5 -11 0 -14 -3 -6 -6z"/>
<path d="M7373 3853 c9 -2 23 -2 30 0 6 3 -1 5 -18 5 -16 0 -22 -2 -12 -5z"/>
<path d="M7580 3383 c8 -3 19 -11 23 -17 6 -7 7 -6 4 4 -2 8 -12 16 -23 17
-13 2 -15 1 -4 -4z"/>
<path d="M2858 3043 c7 -3 16 -2 19 1 4 3 -2 6 -13 5 -11 0 -14 -3 -6 -6z"/>
<path d="M3338 3063 c7 -3 16 -2 19 1 4 3 -2 6 -13 5 -11 0 -14 -3 -6 -6z"/>
<path d="M3650 3039 c0 -5 5 -7 10 -4 6 3 10 8 10 11 0 2 -4 4 -10 4 -5 0 -10
-5 -10 -11z"/>
<path d="M5768 3093 c7 -3 16 -2 19 1 4 3 -2 6 -13 5 -11 0 -14 -3 -6 -6z"/>
<path d="M4248 3083 c6 -2 18 -2 25 0 6 3 1 5 -13 5 -14 0 -19 -2 -12 -5z"/>
<path d="M5670 3083 c-75 -7 -71 -23 6 -23 39 0 75 -5 80 -10 7 -7 32 -8 75
-2 l64 10 -70 2 c-59 2 -64 4 -35 10 30 6 31 8 9 9 -15 0 -39 3 -55 5 -16 2
-49 1 -74 -1z"/>
<path d="M5858 3073 c12 -2 32 -2 45 0 12 2 2 4 -23 4 -25 0 -35 -2 -22 -4z"/>
<path d="M5505 3060 c-4 -6 -44 -10 -96 -9 -143 2 -114 -8 38 -13 133 -5 176
1 143 22 -20 13 -77 13 -85 0z"/>
<path d="M8030 2672 c0 -10 7 -19 14 -19 11 0 13 5 5 19 -5 10 -12 18 -14 18
-3 0 -5 -8 -5 -18z"/>
<path d="M7850 2439 c0 -5 5 -7 10 -4 6 3 10 8 10 11 0 2 -4 4 -10 4 -5 0 -10
-5 -10 -11z"/>
</g>
</svg>
